<?xml version="1.0" encoding="UTF-8" standalone="no"?>
<!-- Created with Inkscape (http://www.inkscape.org/) -->

<svg
   width="128"
   height="128"
   viewBox="0 0 128 128"
   version="1.1"
   id="svg1"
   xml:space="preserve"
   sodipodi:docname="ouushii_rcc_logo2.svg"
   inkscape:version="1.4.4 (dcaf3e7d9e, 2026-05-05)"
   inkscape:export-filename="rcc_logo_render_128.svg"
   inkscape:export-xdpi="96"
   inkscape:export-ydpi="96"
   xmlns:inkscape="http://www.inkscape.org/namespaces/inkscape"
   xmlns:sodipodi="http://sodipodi.sourceforge.net/DTD/sodipodi-0.dtd"
   xmlns="http://www.w3.org/2000/svg"
   xmlns:svg="http://www.w3.org/2000/svg"><sodipodi:namedview
     id="namedview1"
     pagecolor="#ffffff"
     bordercolor="#000000"
     borderopacity="0.25"
     inkscape:showpageshadow="2"
     inkscape:pageopacity="0.0"
     inkscape:pagecheckerboard="0"
     inkscape:deskcolor="#d1d1d1"
     inkscape:document-units="mm"
     inkscape:lockguides="true"
     inkscape:zoom="3.0302734"
     inkscape:cx="-164.3416"
     inkscape:cy="22.605221"
     inkscape:window-width="3774"
     inkscape:window-height="2091"
     inkscape:window-x="66"
     inkscape:window-y="32"
     inkscape:window-maximized="1"
     inkscape:current-layer="layer1"><inkscape:page
       x="0"
       y="0"
       width="128"
       height="128"
       id="page2"
       margin="0"
       bleed="0" /></sodipodi:namedview><defs
     id="defs1" /><g
     inkscape:label="Слой 1"
     inkscape:groupmode="layer"
     id="layer1"
     style="display:inline;opacity:1;mix-blend-mode:normal"><path
       d="m 56.380107,4.2012502 c -2.11497,-0.01437 -4.23957,0.128405 -6.38935,0.409565 -11.27008,1.473984 -22.4135,6.8018568 -30.39984,17.7081298 -8.17892,11.169165 -10.4938696,25.402717 -8.18245,35.726076 1.05072,4.692825 2.99557,9.305593 5.81429,13.831229 l 35.02793,50.23635 c 1.5687,2.24918 4.81285,2.24986 6.38087,0 l 36.01679,-51.679311 0.0764,-0.129431 h -9.66997 L 55.440057,112.79698 23.718217,67.311801 c -2.22839,-3.588144 -3.8113,-7.342106 -4.65144,-11.093843 -1.81249,-8.095071 0.10221,-19.866339 6.79466,-29.005684 6.52578,-8.911747 15.76146,-13.329074 25.11605,-14.552711 7.16173,-0.936654 13.83072,-0.04123 21.14153,3.645604 4.16955,2.10272 8.15701,5.424906 11.95113,9.996767 h 9.92886 C 88.367167,18.115837 82.275777,12.395978 75.569397,9.0139592 68.983217,5.6930342 62.725007,4.2440832 56.380107,4.2012502 Z"
       style="display:inline;fill:#222222;fill-opacity:1;stroke-width:5.97993"
       id="path11" /><path
       d="m 40.284577,61.155607 v -8.747522 h 2.95421 c 2.80074,0 3.56806,0.537128 4.48886,2.455446 l 3.0693,6.292076 h 8.32549 l -3.1844,-6.445542 c -0.95916,-1.956683 -1.80322,-3.222771 -4.45049,-3.913366 v -0.383654 c 4.91089,-0.613864 6.9443,-3.03094 6.9443,-7.097771 0,-5.025992 -3.56807,-7.865103 -10.35891,-7.865103 h -15.00123 v 25.705444 z m 0,-19.22153 h 7.71163 c 2.11015,0 2.87748,0.498763 2.87748,2.532176 0,2.18688 -0.76733,2.570547 -2.87748,2.570547 h -7.71163 z m 33.8007,19.605197 c 8.63243,0 13.81188,-4.105201 13.81188,-10.972771 v -0.652229 h -8.05692 v 0.652229 c 0,2.915839 -1.38119,4.066827 -5.63986,4.066827 -5.21782,0 -6.63737,-1.227719 -6.63737,-6.330442 0,-5.102723 1.41955,-6.330446 6.63737,-6.330446 4.25867,0 5.63986,1.150988 5.63986,4.066832 v 0.652228 h 8.05692 v -0.652228 c 0,-6.867575 -5.17945,-10.972774 -13.81188,-10.972774 -8.93935,0 -14.19554,5.217822 -14.19554,13.236388 0,8.018562 5.25619,13.236386 14.19554,13.236386 z m 29.542113,0 c 8.63242,0 13.81188,-4.105201 13.81188,-10.972771 v -0.652229 h -8.05693 v 0.652229 c 0,2.915839 -1.38119,4.066827 -5.63985,4.066827 -5.217823,0 -6.637373,-1.227719 -6.637373,-6.330442 0,-5.102723 1.41955,-6.330446 6.637373,-6.330446 4.25866,0 5.63985,1.150988 5.63985,4.066832 v 0.652228 h 8.05693 v -0.652228 c 0,-6.867575 -5.17946,-10.972774 -13.81188,-10.972774 -8.939353,0 -14.195543,5.217822 -14.195543,13.236388 0,8.018562 5.25619,13.236386 14.195543,13.236386 z"
       id="text8-2-4-5-1"
       style="font-weight:bold;font-family:'Clash Display';-inkscape-font-specification:'Clash Display Bold';white-space:pre;fill:#008766;fill-opacity:1;stroke-width:3.19719"
       aria-label="RCC" /></g></svg>
